<svg width="161" height="48" viewBox="0 0 161 48" fill="none" xmlns="http://www.w3.org/2000/svg">
<path d="M53.77 4.57H80.26V8.08H53.77V4.57ZM63.37 13H75.37V16.48H63.37V13ZM74.05 13H77.83C77.83 13 77.82 13.1 77.8 13.3C77.8 13.48 77.8 13.7 77.8 13.96C77.8 14.22 77.79 14.43 77.77 14.59C77.65 16.91 77.52 18.9 77.38 20.56C77.26 22.2 77.12 23.58 76.96 24.7C76.8 25.8 76.61 26.68 76.39 27.34C76.17 28 75.91 28.5 75.61 28.84C75.17 29.36 74.69 29.72 74.17 29.92C73.67 30.12 73.08 30.26 72.4 30.34C71.8 30.4 71.02 30.43 70.06 30.43C69.12 30.43 68.15 30.41 67.15 30.37C67.11 29.85 66.97 29.25 66.73 28.57C66.49 27.91 66.2 27.33 65.86 26.83C66.9 26.91 67.89 26.96 68.83 26.98C69.77 27 70.46 27.01 70.9 27.01C71.22 27.01 71.49 26.99 71.71 26.95C71.93 26.89 72.13 26.78 72.31 26.62C72.63 26.34 72.89 25.72 73.09 24.76C73.31 23.78 73.49 22.38 73.63 20.56C73.79 18.72 73.93 16.4 74.05 13.6V13ZM60.79 7.57H64.6C64.54 9.27 64.44 10.99 64.3 12.73C64.18 14.47 63.95 16.19 63.61 17.89C63.27 19.57 62.77 21.19 62.11 22.75C61.45 24.29 60.56 25.74 59.44 27.1C58.32 28.44 56.9 29.62 55.18 30.64C54.92 30.16 54.54 29.64 54.04 29.08C53.54 28.54 53.05 28.09 52.57 27.73C54.15 26.83 55.44 25.8 56.44 24.64C57.46 23.48 58.26 22.22 58.84 20.86C59.42 19.5 59.84 18.08 60.1 16.6C60.36 15.1 60.53 13.59 60.61 12.07C60.69 10.55 60.75 9.05 60.79 7.57ZM91.24 18.43L93.61 16.66C95.17 17.46 96.44 18.37 97.42 19.39C98.4 20.39 99.13 21.42 99.61 22.48C100.09 23.52 100.34 24.52 100.36 25.48C100.4 26.44 100.24 27.3 99.88 28.06C99.52 28.82 98.99 29.42 98.29 29.86C97.73 30.22 97.19 30.47 96.67 30.61C96.17 30.75 95.55 30.82 94.81 30.82C94.45 30.82 94.06 30.81 93.64 30.79C93.24 30.79 92.82 30.78 92.38 30.76C92.36 30.3 92.27 29.76 92.11 29.14C91.95 28.54 91.71 28.01 91.39 27.55C91.91 27.61 92.42 27.65 92.92 27.67C93.42 27.67 93.85 27.67 94.21 27.67C94.59 27.67 94.93 27.65 95.23 27.61C95.55 27.55 95.83 27.42 96.07 27.22C96.51 26.94 96.78 26.48 96.88 25.84C97 25.2 96.9 24.46 96.58 23.62C96.26 22.78 95.66 21.91 94.78 21.01C93.92 20.11 92.74 19.25 91.24 18.43ZM94.54 18.7L96.94 19.9C96.06 20.64 94.98 21.35 93.7 22.03C92.44 22.69 91.11 23.28 89.71 23.8C88.31 24.32 86.95 24.74 85.63 25.06C85.41 24.72 85.11 24.31 84.73 23.83C84.37 23.35 84.04 22.96 83.74 22.66C85.04 22.42 86.37 22.1 87.73 21.7C89.09 21.3 90.37 20.84 91.57 20.32C92.79 19.8 93.78 19.26 94.54 18.7ZM96.49 21.43L99.04 22.78C98.2 23.54 97.23 24.27 96.13 24.97C95.05 25.67 93.9 26.33 92.68 26.95C91.46 27.57 90.21 28.12 88.93 28.6C87.67 29.1 86.44 29.52 85.24 29.86C85.02 29.48 84.71 29.03 84.31 28.51C83.91 27.99 83.54 27.57 83.2 27.25C84.42 26.97 85.66 26.63 86.92 26.23C88.18 25.83 89.4 25.38 90.58 24.88C91.76 24.36 92.86 23.81 93.88 23.23C94.9 22.65 95.77 22.05 96.49 21.43ZM91.36 4.39H100.15V7.06H91.36V4.39ZM96.43 14.11L99.13 15.37C98.01 16.23 96.68 17.02 95.14 17.74C93.6 18.44 91.99 19.06 90.31 19.6C88.65 20.14 87.03 20.6 85.45 20.98C85.33 20.76 85.16 20.49 84.94 20.17C84.72 19.85 84.5 19.53 84.28 19.21C84.06 18.89 83.85 18.63 83.65 18.43C85.23 18.17 86.81 17.83 88.39 17.41C89.99 16.99 91.49 16.5 92.89 15.94C94.31 15.38 95.49 14.77 96.43 14.11ZM100.48 14.71C101.02 16.59 101.75 18.33 102.67 19.93C103.61 21.51 104.77 22.89 106.15 24.07C107.53 25.25 109.15 26.16 111.01 26.8C110.77 27.02 110.5 27.31 110.2 27.67C109.9 28.01 109.62 28.37 109.36 28.75C109.1 29.13 108.88 29.48 108.7 29.8C106.7 28.98 104.98 27.88 103.54 26.5C102.1 25.12 100.88 23.5 99.88 21.64C98.9 19.76 98.1 17.67 97.48 15.37L100.48 14.71ZM107.47 16.24L110.35 18.37C109.61 18.85 108.82 19.33 107.98 19.81C107.14 20.29 106.31 20.75 105.49 21.19C104.67 21.61 103.9 21.97 103.18 22.27L100.93 20.41C101.61 20.07 102.35 19.67 103.15 19.21C103.95 18.73 104.73 18.23 105.49 17.71C106.25 17.19 106.91 16.7 107.47 16.24ZM90.01 11.26V13.57H104.23V11.26H90.01ZM86.65 8.65H107.8V16.18H86.65V8.65ZM91.39 2.38L95.11 3.13C93.97 4.81 92.63 6.42 91.09 7.96C89.55 9.5 87.72 10.91 85.6 12.19C85.44 11.89 85.22 11.58 84.94 11.26C84.66 10.94 84.36 10.63 84.04 10.33C83.74 10.03 83.46 9.8 83.2 9.64C84.5 8.96 85.67 8.21 86.71 7.39C87.75 6.57 88.66 5.73 89.44 4.87C90.24 4.01 90.89 3.18 91.39 2.38ZM95.14 10.06H98.68V15.19H95.14V10.06ZM98.71 4.39H99.52L100.09 4.24L102.55 5.83C102.19 6.41 101.76 7.03 101.26 7.69C100.78 8.33 100.27 8.95 99.73 9.55C99.21 10.15 98.71 10.68 98.23 11.14C97.89 10.88 97.47 10.59 96.97 10.27C96.47 9.93 96.02 9.65 95.62 9.43C96.04 9.03 96.45 8.57 96.85 8.05C97.25 7.51 97.62 6.97 97.96 6.43C98.3 5.89 98.55 5.43 98.71 5.05V4.39Z" fill="white"/>
<path d="M60.1807 41.1H53.0307V39.8H60.1807V41.1ZM73.8273 41.724C73.8273 42.322 73.6799 42.8723 73.3853 43.375C73.0906 43.869 72.6963 44.2633 72.2023 44.558C71.7083 44.8527 71.1579 45 70.5513 45C70.0139 45 69.5156 44.883 69.0563 44.649C68.5969 44.415 68.2156 44.0987 67.9123 43.7C67.6176 44.0987 67.2406 44.415 66.7813 44.649C66.3219 44.883 65.8236 45 65.2863 45C64.6883 45 64.1379 44.8527 63.6353 44.558C63.1413 44.2633 62.7469 43.869 62.4523 43.375C62.1576 42.8723 62.0103 42.322 62.0103 41.724V35.9H63.3103V41.724C63.3103 42.088 63.3969 42.4217 63.5703 42.725C63.7523 43.0197 63.9906 43.258 64.2853 43.44C64.5886 43.6133 64.9223 43.7 65.2863 43.7C65.6416 43.7 65.9666 43.6177 66.2613 43.453C66.5559 43.2797 66.7899 43.05 66.9633 42.764C67.1453 42.478 67.2449 42.1617 67.2623 41.815V35.9H68.5753V41.724C68.5753 42.088 68.6619 42.4217 68.8353 42.725C69.0173 43.0197 69.2556 43.258 69.5503 43.44C69.8536 43.6133 70.1873 43.7 70.5513 43.7C70.9153 43.7 71.2446 43.6133 71.5393 43.44C71.8426 43.258 72.0809 43.0197 72.2543 42.725C72.4363 42.4217 72.5273 42.088 72.5273 41.724V35.9H73.8273V41.724ZM86.2745 45H84.9745V42.4H77.7075V41.1H84.9745V37.2H80.3075C79.7181 37.2 79.1765 37.3473 78.6825 37.642C78.1885 37.928 77.7941 38.318 77.4995 38.812C77.2135 39.306 77.0705 39.852 77.0705 40.45V45H75.7705V40.45C75.7705 39.826 75.8875 39.241 76.1215 38.695C76.3555 38.1403 76.6805 37.655 77.0965 37.239C77.5125 36.8143 77.9935 36.485 78.5395 36.251C79.0941 36.017 79.6835 35.9 80.3075 35.9H86.2745V45ZM89.7567 45H88.4567V35.9H89.1067C89.7394 35.9 90.4241 36.0213 91.1607 36.264C91.9061 36.5067 92.6514 36.849 93.3967 37.291C94.1421 37.733 94.8441 38.2617 95.5027 38.877C96.1701 39.4837 96.7421 40.1597 97.2187 40.905V35.9H98.5187V45H97.2187C97.2187 44.2027 97.0541 43.44 96.7247 42.712C96.4041 41.9753 95.9751 41.2993 95.4377 40.684C94.9004 40.06 94.3024 39.5097 93.6437 39.033C92.9937 38.5477 92.3307 38.1533 91.6547 37.85C90.9787 37.538 90.3461 37.3387 89.7567 37.252V45ZM110.198 45H108.495L104.933 41.334L101.384 45H99.6807L104.088 40.45L99.6807 35.9H101.384L110.198 45ZM110.198 35.9L106.233 39.982L105.388 39.111L108.495 35.9H110.198ZM112.659 45H111.359V35.9H112.659V45ZM125.186 45H123.886V42.4H116.619V41.1H123.886V37.2H119.219C118.629 37.2 118.088 37.3473 117.594 37.642C117.1 37.928 116.705 38.318 116.411 38.812C116.125 39.306 115.982 39.852 115.982 40.45V45H114.682V40.45C114.682 39.826 114.799 39.241 115.033 38.695C115.267 38.1403 115.592 37.655 116.008 37.239C116.424 36.8143 116.905 36.485 117.451 36.251C118.005 36.017 118.595 35.9 119.219 35.9H125.186V45ZM128.668 45H127.368V35.9H128.018C128.651 35.9 129.335 36.0213 130.072 36.264C130.817 36.5067 131.563 36.849 132.308 37.291C133.053 37.733 133.755 38.2617 134.414 38.877C135.081 39.4837 135.653 40.1597 136.13 40.905V35.9H137.43V45H136.13C136.13 44.2027 135.965 43.44 135.636 42.712C135.315 41.9753 134.886 41.2993 134.349 40.684C133.812 40.06 133.214 39.5097 132.555 39.033C131.905 38.5477 131.242 38.1533 130.566 37.85C129.89 37.538 129.257 37.3387 128.668 37.252V45ZM149.148 45H143.285C142.652 45 142.08 44.883 141.569 44.649C141.058 44.415 140.616 44.09 140.243 43.674C139.879 43.258 139.597 42.777 139.398 42.231C139.199 41.6763 139.099 41.0827 139.099 40.45C139.099 39.826 139.199 39.241 139.398 38.695C139.597 38.1403 139.879 37.655 140.243 37.239C140.616 36.8143 141.058 36.485 141.569 36.251C142.08 36.017 142.652 35.9 143.285 35.9H149.148V37.2H143.285C142.687 37.2 142.171 37.3473 141.738 37.642C141.313 37.928 140.984 38.318 140.75 38.812C140.516 39.306 140.399 39.852 140.399 40.45C140.399 41.048 140.516 41.594 140.75 42.088C140.984 42.5733 141.313 42.9633 141.738 43.258C142.171 43.5527 142.687 43.7 143.285 43.7H147.848V41.1H142.336V39.8H149.148V45ZM157.973 41.1H150.823V39.8H157.973V41.1Z" fill="white" fill-opacity="0.6"/>
<rect x="117" y="6" width="41" height="22" rx="3" fill="url(#paint0_linear_5378_51762)"/>
<path d="M133.836 15.496V11.128H134.988V16.616H130.092V22.488H134.604V18.12H135.772V24.488H134.604V23.592H124.396V24.488H123.228V18.12H124.396V22.488H128.908V16.616H124.012V11.128H125.164V15.496H128.908V9.912H130.092V15.496H133.836ZM141.084 10.6H149.9V15.832H141.084V10.6ZM148.748 14.744V11.688H142.236V14.744H148.748ZM144.588 17.416V24.36H143.468V23.544H140.092V24.36H138.956V17.416H144.588ZM140.092 22.456H143.468V18.52H140.092V22.456ZM152.028 17.416V24.36H150.876V23.544H147.372V24.36H146.236V17.416H152.028ZM147.372 22.456H150.876V18.52H147.372V22.456Z" fill="white"/>
<path d="M1.45224 23.4984C-0.327311 21.9303 -0.494552 19.2212 1.0787 17.4475C2.65195 15.6738 5.36993 15.5071 7.14948 17.0752L15.3398 24.2923C17.1194 25.8604 17.2866 28.5695 15.7134 30.3432C14.1401 32.117 11.4221 32.2837 9.64257 30.7156L1.45224 23.4984Z" fill="url(#paint1_linear_5378_51762)"/>
<path d="M23.8211 23.7077C25.6006 22.1396 25.7679 19.4305 24.1946 17.6568C22.6214 15.883 19.9034 15.7163 18.1238 17.2844L9.93349 24.5016C8.15393 26.0697 7.98669 28.7788 9.55994 30.5525C11.1332 32.3262 13.8512 32.4929 15.6307 30.9248L23.8211 23.7077Z" fill="url(#paint2_linear_5378_51762)"/>
<path d="M32.2108 24.5016C33.9904 26.0697 34.1576 28.7788 32.5844 30.5525C31.0111 32.3262 28.2931 32.4929 26.5136 30.9248L18.3232 23.7077C16.5437 22.1396 16.3765 19.4305 17.9497 17.6568C19.523 15.883 22.2409 15.7163 24.0205 17.2844L32.2108 24.5016Z" fill="url(#paint3_linear_5378_51762)"/>
<path d="M43.4059 20.8225C43.4059 23.4815 41.2433 25.6371 38.5755 25.6371C35.9077 25.6371 33.745 23.4815 33.745 20.8225C33.745 18.1634 35.9077 16.0078 38.5755 16.0078C41.2433 16.0078 43.4059 18.1634 43.4059 20.8225Z" fill="url(#paint4_linear_5378_51762)"/>
<defs>
<linearGradient id="paint0_linear_5378_51762" x1="137.5" y1="6" x2="137.5" y2="28" gradientUnits="userSpaceOnUse">
<stop stop-color="#A594FE"/>
<stop offset="1" stop-color="#795EFD"/>
</linearGradient>
<linearGradient id="paint1_linear_5378_51762" x1="43.4059" y1="24" x2="0" y2="24" gradientUnits="userSpaceOnUse">
<stop stop-color="#6389F7"/>
<stop offset="1" stop-color="#F05BBB"/>
</linearGradient>
<linearGradient id="paint2_linear_5378_51762" x1="43.4059" y1="24" x2="0" y2="24" gradientUnits="userSpaceOnUse">
<stop stop-color="#6389F7"/>
<stop offset="1" stop-color="#F05BBB"/>
</linearGradient>
<linearGradient id="paint3_linear_5378_51762" x1="43.4059" y1="24" x2="0" y2="24" gradientUnits="userSpaceOnUse">
<stop stop-color="#6389F7"/>
<stop offset="1" stop-color="#F05BBB"/>
</linearGradient>
<linearGradient id="paint4_linear_5378_51762" x1="43.4059" y1="24" x2="0" y2="24" gradientUnits="userSpaceOnUse">
<stop stop-color="#6389F7"/>
<stop offset="1" stop-color="#F05BBB"/>
</linearGradient>
</defs>
</svg>
