<svg width="1600" height="900" viewBox="0 0 1600 900" fill="none" xmlns="http://www.w3.org/2000/svg">
  <defs>
    <linearGradient id="bg" x1="0" y1="0" x2="1600" y2="900" gradientUnits="userSpaceOnUse">
      <stop stop-color="#FF8D32"/>
      <stop offset="1" stop-color="#FF5A1F"/>
    </linearGradient>
    <pattern id="grid" width="48" height="48" patternUnits="userSpaceOnUse">
      <rect width="48" height="48" fill="rgba(255,255,255,0.02)"/>
      <path d="M0 24H48M24 0V48" stroke="rgba(255,255,255,0.08)" stroke-width="2"/>
    </pattern>
    <filter id="shadow" x="-20%" y="-20%" width="140%" height="140%">
      <feDropShadow dx="0" dy="12" stdDeviation="12" flood-color="#8E2C17" flood-opacity="0.28"/>
    </filter>
  </defs>

  <rect width="1600" height="900" rx="32" fill="url(#bg)"/>
  <rect width="1600" height="900" rx="32" fill="url(#grid)"/>

  <circle cx="140" cy="620" r="74" fill="#FFD44D" opacity="0.95"/>
  <circle cx="1450" cy="710" r="64" fill="#FFD44D" opacity="0.95"/>
  <circle cx="146" cy="625" r="12" fill="#FF8D32"/>
  <circle cx="170" cy="625" r="12" fill="#FF8D32"/>
  <circle cx="1430" cy="705" r="10" fill="#FF8D32"/>
  <circle cx="1454" cy="705" r="10" fill="#FF8D32"/>

  <g filter="url(#shadow)">
    <path d="M110 135H648" stroke="#38E487" stroke-width="22" stroke-linecap="round"/>
    <path d="M1040 250H1500" stroke="#2EE79D" stroke-width="18" stroke-linecap="round"/>
  </g>

  <g transform="translate(70 110)" filter="url(#shadow)">
    <text x="0" y="145" font-size="118" font-weight="900" fill="#FFFFFF" stroke="#2B1820" stroke-width="18" paint-order="stroke">
      大牌好礼
    </text>
    <text x="35" y="290" font-size="120" font-weight="900" fill="#FFFFFF" stroke="#2B1820" stroke-width="18" paint-order="stroke">
      享不停
    </text>
  </g>

  <g transform="translate(1110 120)" filter="url(#shadow)">
    <text x="0" y="160" font-size="130" font-weight="900" fill="#FFFFFF" stroke="#2B1820" stroke-width="18" paint-order="stroke">
      全场
    </text>
    <text x="20" y="320" font-size="150" font-weight="900" fill="#FFFFFF" stroke="#2B1820" stroke-width="18" paint-order="stroke">
      嗨购
    </text>
  </g>

  <g transform="translate(96 522)" filter="url(#shadow)">
    <rect width="560" height="118" rx="54" fill="#8F61FF"/>
    <text x="46" y="77" font-size="56" font-weight="800" fill="#FFFFFF">限时惊喜 全场嗨购</text>
  </g>

  <g transform="translate(690 160)" filter="url(#shadow)">
    <rect x="30" y="20" width="430" height="520" rx="36" fill="#FFFFFF"/>
    <rect x="56" y="48" width="378" height="464" rx="28" fill="#FFA94E"/>
    <circle cx="248" cy="210" r="84" fill="#4E6BFF"/>
    <rect x="185" y="270" width="126" height="150" rx="36" fill="#5CC9FF"/>
    <path d="M146 422C204 344 318 344 376 422L430 496H92L146 422Z" fill="#FFE9C7"/>
    <circle cx="210" cy="188" r="16" fill="#FFFFFF"/>
    <circle cx="286" cy="188" r="16" fill="#FFFFFF"/>
    <rect x="134" y="452" width="224" height="26" rx="13" fill="#F58A28" opacity="0.55"/>
  </g>

  <g fill="#FFD38B" opacity="0.9">
    <rect x="1280" y="90" width="28" height="60" rx="8" transform="rotate(28 1280 90)"/>
    <rect x="1388" y="150" width="26" height="56" rx="8" transform="rotate(-18 1388 150)"/>
    <rect x="1502" y="352" width="28" height="60" rx="8" transform="rotate(22 1502 352)"/>
    <rect x="116" y="278" width="22" height="48" rx="8" transform="rotate(-20 116 278)"/>
  </g>
</svg>
